# xmcd
#
# Track frame offsets:
#	150
#	11495
#	20702
#	30757
#	43335
#	53060
#	63425
#	74635
#	84807
#	104417
#	113545
#	125362
#
# Disc length: 1846
#
# Revision: 2
# Processed by: cddbd v1.5.1PL0 Copyright (c) Steve Scherf et al.
# Submitted via: EasyCDDAExtractor 4.6.9.1
# Normalized: r1:TDELIM( - )
#
DISCID=9507340c
DTITLE=Various Artist - Fun In The Sun
DYEAR=1999
DGENRE=Blues
TTITLE0=Jan and Dean - Surf City
TTITLE1=The Beach Boys - Surfin' Safari
TTITLE2=The Chantays - Pipeline
TTITLE3=Bobby Freeman - C'mon And Swim
TTITLE4=Jan and Dean - Fun, Fun, Fun
TTITLE5=The Trashmen - Surfin' Bird
TTITLE6=Jan and Dean - The Little Old Lady (From Pasadena)
TTITLE7=The Surfaris - Wipe Out
TTITLE8=The Regents - Beach Baby
TTITLE9=The Hondells - Little Honda
TTITLE10=Bobby Freeman - Do You Wanna Dance
TTITLE11=Jan and Dean - Help Me, Rhonda
EXTD=
EXTT0=
EXTT1=
EXTT2=
EXTT3=
EXTT4=
EXTT5=
EXTT6=
EXTT7=
EXTT8=
EXTT9=
EXTT10=
EXTT11=
PLAYORDER=
